<svg width="143" height="15" viewBox="0 0 143 15" fill="none" xmlns="http://www.w3.org/2000/svg">
<path d="M6.78 14.52C5.42 14.52 4.22667 14.22 3.2 13.62C2.18667 13.02 1.4 12.18 0.84 11.1C0.28 10.0067 0 8.72667 0 7.26C0 5.78 0.28 4.5 0.84 3.42C1.4 2.34 2.18667 1.50667 3.2 0.92C4.21333 0.32 5.40667 0.0199997 6.78 0.0199997C8.15333 0.0199997 9.34667 0.32 10.36 0.92C11.3733 1.50667 12.16 2.34 12.72 3.42C13.28 4.5 13.56 5.77333 13.56 7.24C13.56 8.72 13.28 10.0067 12.72 11.1C12.16 12.18 11.3733 13.02 10.36 13.62C9.34667 14.22 8.15333 14.52 6.78 14.52ZM6.78 12.32C8.07333 12.32 9.08 11.8733 9.8 10.98C10.52 10.0867 10.88 8.84667 10.88 7.26C10.88 5.66 10.52 4.42 9.8 3.54C9.09333 2.66 8.08667 2.22 6.78 2.22C5.48667 2.22 4.48 2.66 3.76 3.54C3.04 4.42 2.68 5.66 2.68 7.26C2.68 8.84667 3.04 10.0867 3.76 10.98C4.48 11.8733 5.48667 12.32 6.78 12.32Z" fill="white"/>
<path d="M19.4631 14.52C17.0631 14.52 15.8631 13.1733 15.8631 10.48V4.54H18.3631V10.52C18.3631 11.2133 18.5031 11.7267 18.7831 12.06C19.0631 12.3933 19.5098 12.56 20.1231 12.56C20.7898 12.56 21.3365 12.3333 21.7631 11.88C22.1898 11.4133 22.4031 10.8 22.4031 10.04V4.54H24.9031V14.32H22.4631V12.86C21.8098 13.9667 20.8098 14.52 19.4631 14.52Z" fill="white"/>
<path d="M27.5052 14.32V4.54H29.9452V6.26C30.4252 5.1 31.4518 4.46 33.0252 4.34L33.7852 4.28L33.9452 6.4L32.5052 6.54C30.8652 6.7 30.0452 7.54 30.0452 9.06V14.32H27.5052Z" fill="white"/>
<path d="M45.8278 14.52C44.7211 14.52 43.6945 14.38 42.7478 14.1C41.8011 13.8067 41.0011 13.4133 40.3478 12.92L41.1278 10.9C41.7811 11.3667 42.4945 11.7267 43.2678 11.98C44.0545 12.2333 44.9078 12.36 45.8278 12.36C46.8811 12.36 47.6478 12.1867 48.1278 11.84C48.6078 11.48 48.8478 11.02 48.8478 10.46C48.8478 9.99333 48.6745 9.62667 48.3278 9.36C47.9945 9.09333 47.4145 8.87333 46.5878 8.7L44.3878 8.24C41.8811 7.70667 40.6278 6.42 40.6278 4.38C40.6278 3.5 40.8611 2.73333 41.3278 2.08C41.7945 1.42667 42.4411 0.92 43.2678 0.56C44.0945 0.2 45.0478 0.0199997 46.1278 0.0199997C47.0878 0.0199997 47.9878 0.166667 48.8278 0.46C49.6678 0.74 50.3678 1.14 50.9278 1.66L50.1478 3.58C49.0411 2.64667 47.6945 2.18 46.1078 2.18C45.1878 2.18 44.4678 2.37333 43.9478 2.76C43.4278 3.14667 43.1678 3.65333 43.1678 4.28C43.1678 4.76 43.3278 5.14667 43.6478 5.44C43.9678 5.72 44.5145 5.94 45.2878 6.1L47.4678 6.56C48.7878 6.84 49.7678 7.28 50.4078 7.88C51.0611 8.48 51.3878 9.28 51.3878 10.28C51.3878 11.12 51.1611 11.86 50.7078 12.5C50.2545 13.14 49.6078 13.64 48.7678 14C47.9411 14.3467 46.9611 14.52 45.8278 14.52Z" fill="white"/>
<path d="M58.165 14.52C57.0583 14.52 56.105 14.3133 55.305 13.9C54.505 13.4867 53.885 12.9 53.445 12.14C53.0183 11.38 52.805 10.48 52.805 9.44C52.805 8.42667 53.0117 7.54 53.425 6.78C53.8517 6.02 54.4317 5.42667 55.165 5C55.9117 4.56 56.7583 4.34 57.705 4.34C59.0917 4.34 60.185 4.78 60.985 5.66C61.7983 6.54 62.205 7.74 62.205 9.26V10H55.205C55.3917 11.7467 56.3917 12.62 58.205 12.62C58.7517 12.62 59.2983 12.54 59.845 12.38C60.3917 12.2067 60.8917 11.94 61.345 11.58L62.045 13.26C61.5783 13.6467 60.9917 13.9533 60.285 14.18C59.5783 14.4067 58.8717 14.52 58.165 14.52ZM57.805 6.04C57.0717 6.04 56.4783 6.26667 56.025 6.72C55.5717 7.17333 55.2983 7.78667 55.205 8.56H60.125C60.0717 7.74667 59.845 7.12667 59.445 6.7C59.0583 6.26 58.5117 6.04 57.805 6.04Z" fill="white"/>
<path d="M64.1848 14.32V4.54H66.6248V6.26C67.1048 5.1 68.1315 4.46 69.7048 4.34L70.4648 4.28L70.6248 6.4L69.1848 6.54C67.5448 6.7 66.7248 7.54 66.7248 9.06V14.32H64.1848Z" fill="white"/>
<path d="M75.5023 14.32L71.2623 4.54H73.9223L76.6423 11.38L79.4623 4.54H81.9623L77.6623 14.32H75.5023Z" fill="white"/>
<path d="M83.0092 2.44V0H85.8092V2.44H83.0092ZM83.1692 14.32V4.54H85.6692V14.32H83.1692Z" fill="white"/>
<path d="M92.7869 14.52C91.7602 14.52 90.8669 14.3133 90.1069 13.9C89.3469 13.4733 88.7602 12.8733 88.3469 12.1C87.9335 11.3267 87.7269 10.42 87.7269 9.38C87.7269 8.34 87.9335 7.44667 88.3469 6.7C88.7602 5.94 89.3469 5.36 90.1069 4.96C90.8669 4.54667 91.7602 4.34 92.7869 4.34C93.4135 4.34 94.0335 4.44 94.6469 4.64C95.2602 4.84 95.7669 5.12 96.1669 5.48L95.4269 7.22C95.0802 6.91333 94.6869 6.68 94.2469 6.52C93.8202 6.36 93.4069 6.28 93.0069 6.28C92.1402 6.28 91.4669 6.55333 90.9869 7.1C90.5202 7.63333 90.2869 8.4 90.2869 9.4C90.2869 10.3867 90.5202 11.1667 90.9869 11.74C91.4669 12.3 92.1402 12.58 93.0069 12.58C93.3935 12.58 93.8069 12.5 94.2469 12.34C94.6869 12.18 95.0802 11.94 95.4269 11.62L96.1669 13.38C95.7669 13.7267 95.2535 14.0067 94.6269 14.22C94.0135 14.42 93.4002 14.52 92.7869 14.52Z" fill="white"/>
<path d="M102.325 14.52C101.218 14.52 100.265 14.3133 99.4652 13.9C98.6652 13.4867 98.0452 12.9 97.6052 12.14C97.1785 11.38 96.9652 10.48 96.9652 9.44C96.9652 8.42667 97.1718 7.54 97.5852 6.78C98.0118 6.02 98.5918 5.42667 99.3252 5C100.072 4.56 100.918 4.34 101.865 4.34C103.252 4.34 104.345 4.78 105.145 5.66C105.958 6.54 106.365 7.74 106.365 9.26V10H99.3652C99.5518 11.7467 100.552 12.62 102.365 12.62C102.912 12.62 103.458 12.54 104.005 12.38C104.552 12.2067 105.052 11.94 105.505 11.58L106.205 13.26C105.738 13.6467 105.152 13.9533 104.445 14.18C103.738 14.4067 103.032 14.52 102.325 14.52ZM101.965 6.04C101.232 6.04 100.638 6.26667 100.185 6.72C99.7318 7.17333 99.4585 7.78667 99.3652 8.56H104.285C104.232 7.74667 104.005 7.12667 103.605 6.7C103.218 6.26 102.672 6.04 101.965 6.04Z" fill="white"/>
<path d="M111.925 14.52C111.098 14.52 110.325 14.42 109.605 14.22C108.885 14.02 108.285 13.7333 107.805 13.36L108.445 11.72C108.938 12.0533 109.492 12.3133 110.105 12.5C110.718 12.6733 111.332 12.76 111.945 12.76C112.585 12.76 113.058 12.6533 113.365 12.44C113.685 12.2133 113.845 11.92 113.845 11.56C113.845 11 113.432 10.64 112.605 10.48L110.605 10.1C108.912 9.78 108.065 8.9 108.065 7.46C108.065 6.82 108.238 6.26667 108.585 5.8C108.945 5.33333 109.438 4.97333 110.065 4.72C110.692 4.46667 111.412 4.34 112.225 4.34C112.918 4.34 113.585 4.44 114.225 4.64C114.865 4.82667 115.412 5.11333 115.865 5.5L115.185 7.14C114.798 6.82 114.332 6.56667 113.785 6.38C113.252 6.19333 112.738 6.1 112.245 6.1C111.592 6.1 111.105 6.21333 110.785 6.44C110.478 6.66667 110.325 6.96667 110.325 7.34C110.325 7.92667 110.705 8.28667 111.465 8.42L113.465 8.8C114.332 8.96 114.985 9.25333 115.425 9.68C115.878 10.1067 116.105 10.68 116.105 11.4C116.105 12.3733 115.725 13.14 114.965 13.7C114.205 14.2467 113.192 14.52 111.925 14.52Z" fill="white"/>
<path d="M132.92 2.82C132.92 2.26772 133.368 1.82 133.92 1.82L141.92 1.82C142.472 1.82 142.92 2.26772 142.92 2.82V10.82C142.92 11.3723 142.472 11.82 141.92 11.82C141.368 11.82 140.92 11.3723 140.92 10.82V5.23421L132.627 13.5271C132.237 13.9176 131.603 13.9176 131.213 13.5271C130.822 13.1366 130.822 12.5034 131.213 12.1129L139.506 3.82L133.92 3.82C133.368 3.82 132.92 3.37229 132.92 2.82Z" fill="white"/>
</svg>
